<svg width="1024" height="1024" xmlns="http://www.w3.org/2000/svg" viewBox="0 0 1024 1024">
  <path fill="#515f6b" d="M992 288v448q13.6 0 23.2 9.6 8.8 8.8 8.8 22.4v192q0 13.6-8.8 23.2l-32 32q-9.6 8.8-23.2 8.8H768q-13.6 0-22.4-8.8-9.6-9.6-9.6-23.2H288q0 13.6-9.6 23.2-8.8 8.8-22.4 8.8H64q-13.6 0-23.2-8.8l-32-32Q0 973.6 0 960V768q0-13.6 8.8-22.4Q18.4 736 32 736V288q-13.6 0-23.2-9.6Q0 269.6 0 256V64q0-13.6 8.8-23.2l32-32Q50.4 0 64 0h192q13.6 0 22.4 8.8Q288 18.4 288 32h448q0-13.6 9.6-23.2Q754.4 0 768 0h192q13.6 0 23.2 8.8l32 32q8.8 9.6 8.8 23.2v192q0 13.6-8.8 22.4-9.6 9.6-23.2 9.6M928 96h-32v32h32zl32 32v96l32 32V64l-32-32H768l32 32h96zm-64 32V96h-64q-13.6 0-22.4-9.6L755.2 64H268.8l-22.4 22.4Q237.6 96 224 96h-64v32q0 13.6-9.6 22.4-8.8 9.6-22.4 9.6H96v64q0 13.6-9.6 22.4L64 268.8v486.4l22.4 22.4Q96 786.4 96 800v64h32q13.6 0 22.4 9.6 9.6 8.8 9.6 22.4v32h64q13.6 0 22.4 9.6l22.4 22.4h486.4l22.4-22.4q8.8-9.6 22.4-9.6h64v-32q0-13.6 9.6-22.4 8.8-9.6 22.4-9.6h32v-64q0-13.6 9.6-22.4l22.4-22.4V268.8l-22.4-22.4q-9.6-8.8-9.6-22.4v-64h-32q-13.6 0-22.4-9.6-9.6-8.8-9.6-22.4m128 704v-64l-32 32v96l-32 32v-32h-32v32h32l-32 32h-96l-32 32h192l32-32zM192 64h32l32-32H64L32 64v192l32-32v-96l32-32v32h32V96H96l32-32zM64 832v-32l-32-32v192l32 32h192l-32-32h-96l-32-32h32v-32H96v32l-32-32z"/>
  <path fill="#94afc6" d="M64 832H32v-64l32 32zM928 96v32h-32V96zl-32-32V32h64l32 32v64h-32zm-96-32h-32l-32-32h64zm160 128v64l-32-32v-32zm-32 640v-32l32-32v64zm32 64v64l-32 32h-64v-32l32-32h-32v-32h32v32l32-32zm-160 96h-64l32-32h32zM192 32h64l-32 32h-32zm-64 32L96 96h32v32H96V96l-32 32H32V64l32-32h64zM64 192v32l-32 32v-64zm0 704 32 32v-32h32v32H96l32 32v32H64l-32-32v-64zm128 64h32l32 32h-64z"/>
  <path fill="#778d9f" d="M192 960v32h-64v-32zM896 64h-64V32h64zm96 64v64h-32v-64zm-832 0V96h64q13.6 0 22.4-9.6L268.8 64h486.4l22.4 22.4Q786.4 96 800 96h64v32zm736 32h32v64q0 13.6 9.6 22.4l22.4 22.4v486.4l-22.4 22.4q-9.6 8.8-9.6 22.4v64h-32zm-32 736v32h-64q-13.6 0-22.4 9.6L755.2 960H268.8l-22.4-22.4q-8.8-9.6-22.4-9.6h-64v-32zm-736-32H96v-64q0-13.6-9.6-22.4L64 755.2V268.8l22.4-22.4Q96 237.6 96 224v-64h32zm864-32v64h-32v-64zm-96 160h-64v-32h64zM192 32v32h-64V32zM64 128v64H32v-64zM32 832h32v64H32z"/>
  <path fill="#647685" d="M864 128q0 13.6 9.6 22.4 8.8 9.6 22.4 9.6v704q-13.6 0-22.4 9.6-9.6 8.8-9.6 22.4H160q0-13.6-9.6-22.4-8.8-9.6-22.4-9.6V160q13.6 0 22.4-9.6 9.6-8.8 9.6-22.4zm-704 64v640l32 32h640l32-32V192l-32-32H192z"/>
</svg>
